<svg xmlns="http://www.w3.org/2000/svg" xmlns:xlink="http://www.w3.org/1999/xlink" viewBox="0 0 1920 863.83"><defs><style>.cls-1{fill:url(#linear-gradient);}.cls-2{fill:none;stroke:#fff;stroke-miterlimit:10;}</style><linearGradient id="linear-gradient" x1="394.9" y1="-0.23" x2="1583.67" y2="802.49" gradientUnits="userSpaceOnUse"><stop offset="0" stop-color="#00aeef"/><stop offset="1" stop-color="#00aeef" stop-opacity="0.57"/></linearGradient></defs><g id="Layer_2" data-name="Layer 2"><g id="Layer_1-2" data-name="Layer 1"><path class="cls-1" d="M1920,.5V788.82s-49.89-1.53-105-33.7S1614.28,695.37,1398.28,775s-174.64-85.78-347.75-104.17c-148-15.71-149.31,54.78-195.4,106.2a130.76,130.76,0,0,1-28.26,24A123.19,123.19,0,0,1,806,811.66c-37.8,14.71-75.22,5.56-116.17-14.67-17.35-8.57-35.33-19.13-54.25-30.72-19.86-12.16-40.74-25.44-63-38.73C469.94,666.27,466.87,759.71,303,842.44S0,741.33,0,741.33V.5Z"/><g id="Cart"><path class="cls-2" d="M741,718.2a139.93,139.93,0,0,0-105.41,48.07c18.92,11.59,36.9,22.15,54.25,30.72A79.78,79.78,0,0,1,806,811.66a123.19,123.19,0,0,0,20.88-10.58,130.76,130.76,0,0,0,28.26-24A140.12,140.12,0,0,0,741,718.2Z"/><path class="cls-2" d="M1221.35,478.74a139.82,139.82,0,1,0,185.93,67.33h0A140,140,0,0,0,1221.35,478.74Zm93.08,198.77a79.68,79.68,0,1,1,38.37-106h0A79.76,79.76,0,0,1,1314.43,677.51Z"/><path class="cls-2" d="M1298.53,313.87a30.07,30.07,0,0,0-40-14.48L705.68,558.28A79.12,79.12,0,0,1,592.6,490.43l-1.36-30.16L1160.92,118.8A171.33,171.33,0,0,0,1241.7.5h-61.44A111.18,111.18,0,0,1,1130,67.27L566.5,405.11,244.68,64.85,387.68.5H241.12l-40.2,18.09L183.84.5H101.13l72.14,76.29,357.52,378,1.79,38.56A139.21,139.21,0,0,0,731.19,612.74l552.86-258.89A30.07,30.07,0,0,0,1298.53,313.87Z"/></g></g></g></svg>